<svg xmlns="http://www.w3.org/2000/svg" viewBox="0 0 1600 900" role="img" aria-labelledby="t"><title id="t">Complete Ready Website For Rent</title><defs><linearGradient id="bg" x1="0" x2="1"><stop stop-color="#fffaf0"/><stop offset="1" stop-color="#eee7d8"/></linearGradient><filter id="s"><feDropShadow dx="0" dy="18" stdDeviation="22" flood-opacity=".16"/></filter></defs><rect width="1600" height="900" fill="url(#bg)"/><circle cx="1450" cy="130" r="250" fill="#0f6a5f" opacity=".06"/><text x="55" y="85" font-family="Georgia" font-size="55" font-weight="700" fill="#063c31">Prime</text><text x="62" y="122" font-family="Arial" font-size="19" letter-spacing="10" fill="#b78a35">SKILLS</text><text x="55" y="245" font-family="Arial" font-size="82" font-weight="900" fill="#063c31">Complete</text><text x="55" y="335" font-family="Arial" font-size="88" font-weight="900" fill="#063c31">Ready Website</text><text x="55" y="430" font-family="Arial" font-size="96" font-weight="900" fill="#c61717">For Rent</text><rect x="58" y="468" width="10" height="95" rx="5" fill="#0f6a5f"/><text x="90" y="510" font-family="Arial" font-size="37" font-weight="800" fill="#151713">Business ke liye ready website hasil kry</text><text x="90" y="553" font-family="Arial" font-size="27" fill="#333">Fast setup • Modern design • Ready to launch</text><g filter="url(#s)"><rect x="810" y="115" width="700" height="480" rx="35" fill="#1b1d1c"/><rect x="850" y="155" width="620" height="390" rx="18" fill="#faf8f2"/><text x="885" y="205" font-family="Georgia" font-size="33" font-weight="700" fill="#063c31">BizRent</text><text x="885" y="295" font-family="Georgia" font-size="50" font-weight="700" fill="#111">Premium Business Website</text><text x="885" y="350" font-family="Arial" font-size="26" fill="#555">Ready to rent and launch today.</text><rect x="885" y="395" width="165" height="55" rx="12" fill="#0f6a5f"/><text x="928" y="431" font-family="Arial" font-size="20" font-weight="700" fill="white">View Plans</text><rect x="1105" y="250" width="300" height="215" rx="18" fill="#d8c4a0"/><path d="M1125 440 L1210 320 L1300 370 L1385 290 L1385 455 L1125 455Z" fill="#0f6a5f" opacity=".8"/><rect x="760" y="210" width="130" height="90" rx="14" fill="#fff"/><rect x="760" y="325" width="130" height="90" rx="14" fill="#fff"/><rect x="760" y="440" width="130" height="90" rx="14" fill="#fff"/></g><rect x="55" y="595" width="670" height="74" rx="37" fill="white" filter="url(#s)"/><text x="92" y="642" font-family="Arial" font-size="25" font-weight="700" fill="#063c31">🚀 Fast Setup</text><text x="315" y="642" font-family="Arial" font-size="25" font-weight="700" fill="#063c31">✦ Modern Design</text><text x="555" y="642" font-family="Arial" font-size="25" font-weight="700" fill="#063c31">✓ Ready</text><rect x="55" y="700" width="625" height="112" rx="28" fill="#063c31" filter="url(#s)"/><rect x="290" y="700" width="390" height="112" rx="28" fill="#e1352b"/><text x="90" y="770" font-family="Arial" font-size="39" font-style="italic" font-weight="700" fill="white">Starting</text><text x="325" y="775" font-family="Arial" font-size="58" font-weight="900" fill="white">Rs 8,000</text><rect x="720" y="700" width="800" height="112" rx="28" fill="white" filter="url(#s)"/><text x="755" y="748" font-family="Arial" font-size="25" fill="#333">Contact</text><text x="755" y="793" font-family="Arial" font-size="46" font-weight="900" fill="#063c31">03039598676</text><rect x="1065" y="720" width="270" height="72" rx="36" fill="#0f6a5f"/><text x="1110" y="766" font-family="Arial" font-size="28" font-weight="800" fill="white">WhatsApp</text><rect x="1350" y="720" width="145" height="72" rx="36" fill="#e1352b"/><text x="1374" y="766" font-family="Arial" font-size="25" font-weight="800" fill="white">Order</text></svg>