<svg xmlns="http://www.w3.org/2000/svg" viewBox="0 0 1600 900" role="img" aria-labelledby="t d"><title id="t">Apni Website Banwayein</title><desc id="d">Prime Skills website development service</desc><defs><linearGradient id="bg" x1="0" x2="1"><stop stop-color="#fffaf0"/><stop offset="1" stop-color="#eee7d8"/></linearGradient><linearGradient id="red" x1="0" x2="1"><stop stop-color="#b91515"/><stop offset="1" stop-color="#e1352b"/></linearGradient><linearGradient id="green" x1="0" x2="1"><stop stop-color="#063c31"/><stop offset="1" stop-color="#0f6a5f"/></linearGradient><filter id="s"><feDropShadow dx="0" dy="18" stdDeviation="22" flood-opacity=".16"/></filter></defs><rect width="1600" height="900" fill="url(#bg)"/><circle cx="1450" cy="130" r="240" fill="#0f6a5f" opacity=".06"/><text x="55" y="85" font-family="Georgia" font-size="55" font-weight="700" fill="#063c31">Prime</text><text x="62" y="122" font-family="Arial" font-size="19" letter-spacing="10" fill="#b78a35">SKILLS</text><text x="55" y="270" font-family="Arial" font-size="95" font-weight="900" fill="#063c31">Apni Website</text><text x="55" y="375" font-family="Arial" font-size="105" font-weight="900" fill="#c61717">Banwayein</text><rect x="58" y="417" width="10" height="118" rx="5" fill="#0f6a5f"/><text x="90" y="460" font-family="Arial" font-size="38" font-weight="800" fill="#151713">Business, Store ya Portfolio website</text><text x="90" y="510" font-family="Arial" font-size="34" fill="#0f6a5f">professional design ke sath</text><g filter="url(#s)"><rect x="790" y="105" width="730" height="505" rx="35" fill="#1b1d1c" transform="rotate(-2 790 105)"/><rect x="830" y="145" width="650" height="420" rx="18" fill="#f8f6ef"/><rect x="830" y="145" width="650" height="95" rx="18" fill="#063c31"/><text x="875" y="205" font-family="Arial" font-size="35" font-weight="800" fill="white">NEXORA</text><text x="875" y="300" font-family="Georgia" font-size="52" font-weight="700" fill="#063c31">We Build Stunning Websites</text><text x="875" y="350" font-family="Arial" font-size="25" fill="#555">Modern • Responsive • Results Driven</text><rect x="875" y="390" width="180" height="58" rx="12" fill="#0f6a5f"/><text x="912" y="428" font-family="Arial" font-size="21" font-weight="700" fill="white">Explore More</text><rect x="1110" y="270" width="300" height="205" rx="20" fill="#d8c4a0"/><path d="M1125 440 L1230 310 L1320 370 L1392 285 L1392 457 L1125 457Z" fill="#0f6a5f" opacity=".85"/></g><rect x="55" y="585" width="620" height="74" rx="37" fill="white" filter="url(#s)"/><text x="92" y="632" font-family="Arial" font-size="25" font-weight="700" fill="#063c31">🚀 Easy setup</text><text x="300" y="632" font-family="Arial" font-size="25" font-weight="700" fill="#063c31">✦ Modern design</text><text x="515" y="632" font-family="Arial" font-size="25" font-weight="700" fill="#063c31">⚡ Fast delivery</text><g filter="url(#s)"><rect x="55" y="690" width="625" height="112" rx="28" fill="url(#green)"/><rect x="290" y="690" width="390" height="112" rx="28" fill="url(#red)"/><text x="90" y="760" font-family="Arial" font-size="39" font-style="italic" font-weight="700" fill="white">Starting</text><text x="325" y="765" font-family="Arial" font-size="58" font-weight="900" fill="white">Rs 15,000</text></g><rect x="720" y="690" width="800" height="112" rx="28" fill="white" filter="url(#s)"/><text x="755" y="738" font-family="Arial" font-size="25" fill="#333">Contact</text><text x="755" y="783" font-family="Arial" font-size="46" font-weight="900" fill="#063c31">03238878009</text><rect x="1065" y="710" width="270" height="72" rx="36" fill="#0f6a5f"/><text x="1110" y="756" font-family="Arial" font-size="28" font-weight="800" fill="white">WhatsApp</text><rect x="1350" y="710" width="145" height="72" rx="36" fill="#e1352b"/><text x="1374" y="756" font-family="Arial" font-size="25" font-weight="800" fill="white">Order</text></svg>